<svg width="24" height="24" viewBox="0 0 24 24" fill="none" xmlns="http://www.w3.org/2000/svg">
<path fill-rule="evenodd" clip-rule="evenodd" d="M17.2061 13C17.3471 13.7907 17.4673 14.5451 17.5789 15.2453C17.5849 15.2831 17.5909 15.3207 17.5969 15.3582C17.7702 16.445 17.9211 17.3777 18.0994 18.1501C18.2817 18.9401 18.4694 19.451 18.6646 19.7488C18.8263 19.9957 18.9187 20 19 20C19.2652 20 19.5196 19.8946 19.7071 19.7071C19.8946 19.5196 20 19.2652 20 19C20 18.4477 20.4477 18 21 18C21.5523 18 22 18.4477 22 19C22 19.7957 21.6839 20.5587 21.1213 21.1213C20.5587 21.6839 19.7956 22 19 22C18.0813 22 17.4237 21.5043 16.9917 20.8449C16.5931 20.2365 16.3433 19.4349 16.1506 18.5999C15.9539 17.7473 15.7923 16.7425 15.6218 15.6731L15.6055 15.5706C15.476 14.7578 15.3388 13.8972 15.1736 13H13C12.4477 13 12 12.5523 12 12C12 11.4477 12.4477 11 13 11H14.7939C14.6529 10.2093 14.5327 9.45487 14.4211 8.75467C14.4151 8.71689 14.4091 8.67927 14.4031 8.64181C14.2298 7.55496 14.0789 6.62234 13.9006 5.84986C13.7183 5.05995 13.5306 4.54903 13.3354 4.25115C13.1737 4.00429 13.0813 4 13 4C12.7348 4 12.4804 4.10536 12.2929 4.29289C12.1054 4.48043 12 4.73478 12 5C12 5.55228 11.5523 6 11 6C10.4477 6 10 5.55228 10 5C10 4.20435 10.3161 3.44129 10.8787 2.87868C11.4413 2.31607 12.2044 2 13 2C13.9187 2 14.5763 2.49571 15.0083 3.1551C15.4069 3.76347 15.6567 4.56505 15.8494 5.40014C16.0461 6.25266 16.2077 7.25754 16.3782 8.32694C16.3836 8.36102 16.389 8.39519 16.3945 8.42944C16.524 9.24219 16.6612 10.1028 16.8264 11H19C19.5523 11 20 11.4477 20 12C20 12.5523 19.5523 13 19 13H17.2061ZM9.70711 11.2929C9.31658 10.9024 8.68342 10.9024 8.29289 11.2929L6 13.5858L3.70711 11.2929C3.31658 10.9024 2.68342 10.9024 2.29289 11.2929C1.90237 11.6834 1.90237 12.3166 2.29289 12.7071L4.58579 15L2.29289 17.2929C1.90237 17.6834 1.90237 18.3166 2.29289 18.7071C2.68342 19.0976 3.31658 19.0976 3.70711 18.7071L6 16.4142L8.29289 18.7071C8.68342 19.0976 9.31658 19.0976 9.70711 18.7071C10.0976 18.3166 10.0976 17.6834 9.70711 17.2929L7.41421 15L9.70711 12.7071C10.0976 12.3166 10.0976 11.6834 9.70711 11.2929Z" fill="black"/>
</svg>
