<svg width="17" height="17" viewBox="0 0 17 17" fill="none" xmlns="http://www.w3.org/2000/svg">
    <path fill-rule="evenodd" clip-rule="evenodd"
        d="M7.79175 14.1667C7.79175 13.7755 8.10888 13.4583 8.50008 13.4583H14.8751C15.2663 13.4583 15.5834 13.7755 15.5834 14.1667C15.5834 14.5579 15.2663 14.875 14.8751 14.875H8.50008C8.10888 14.875 7.79175 14.5579 7.79175 14.1667Z"
        fill="black" />
    <path fill-rule="evenodd" clip-rule="evenodd"
        d="M12.7501 2.7474C12.5394 2.7474 12.3374 2.83108 12.1885 2.98004L3.47303 11.6955L3.09861 13.1932L4.59629 12.8187L13.3117 4.1033C13.3855 4.02955 13.444 3.94199 13.4839 3.84562C13.5238 3.74926 13.5444 3.64597 13.5444 3.54167C13.5444 3.43736 13.5238 3.33408 13.4839 3.23772C13.444 3.14135 13.3855 3.05379 13.3117 2.98004C13.238 2.90628 13.1504 2.84778 13.054 2.80786C12.9577 2.76795 12.8544 2.7474 12.7501 2.7474ZM11.1867 1.9783C11.6014 1.56367 12.1637 1.33073 12.7501 1.33073C13.0404 1.33073 13.3279 1.38792 13.5962 1.49903C13.8644 1.61014 14.1082 1.773 14.3135 1.9783C14.5188 2.18361 14.6816 2.42734 14.7927 2.69558C14.9038 2.96382 14.961 3.25132 14.961 3.54167C14.961 3.83201 14.9038 4.11951 14.7927 4.38776C14.6816 4.656 14.5188 4.89973 14.3135 5.10504L5.4593 13.9592C5.36852 14.05 5.25477 14.1144 5.13023 14.1455L2.29689 14.8539C2.05551 14.9142 1.80017 14.8435 1.62423 14.6675C1.44829 14.4916 1.37757 14.2363 1.43791 13.9949L2.14625 11.1615C2.17738 11.037 2.24178 10.9232 2.33256 10.8325L11.1867 1.9783Z"
        fill="black" />
</svg>
