<svg width="24" height="24" viewBox="0 0 24 24" fill="none" xmlns="http://www.w3.org/2000/svg">
<path d="M3.74999 16.6058V13.5C3.74999 13.1022 3.90803 12.7206 4.18933 12.4393C4.47064 12.158 4.85217 12 5.24999 12H11.25V9H9.74999C9.35229 8.9996 8.97099 8.84144 8.68977 8.56022C8.40855 8.279 8.25039 7.8977 8.24999 7.5V3C8.25039 2.6023 8.40855 2.221 8.68977 1.93978C8.97099 1.65856 9.35229 1.5004 9.74999 1.5H14.25C14.6477 1.5004 15.029 1.65856 15.3102 1.93978C15.5914 2.221 15.7496 2.6023 15.75 3V7.5C15.7496 7.8977 15.5914 8.279 15.3102 8.56022C15.029 8.84144 14.6477 8.9996 14.25 9H12.75V12H18.75C19.1478 12 19.5293 12.158 19.8107 12.4393C20.092 12.7206 20.25 13.1022 20.25 13.5V16.6065C20.957 16.789 21.5731 17.2232 21.9829 17.8275C22.3928 18.4318 22.5681 19.1649 22.4761 19.8893C22.3841 20.6136 22.031 21.2795 21.4832 21.7622C20.9353 22.2449 20.2302 22.5112 19.5 22.5112C18.7698 22.5112 18.0647 22.2449 17.5168 21.7622C16.9689 21.2795 16.6159 20.6136 16.5239 19.8893C16.4319 19.1649 16.6072 18.4318 17.017 17.8275C17.4269 17.2232 18.043 16.789 18.75 16.6065V13.5H12.75V16.6065C13.457 16.789 14.0731 17.2232 14.4829 17.8275C14.8928 18.4318 15.0681 19.1649 14.9761 19.8893C14.8841 20.6136 14.531 21.2795 13.9832 21.7622C13.4353 22.2449 12.7302 22.5112 12 22.5112C11.2698 22.5112 10.5647 22.2449 10.0168 21.7622C9.46894 21.2795 9.11591 20.6136 9.0239 19.8893C8.9319 19.1649 9.10723 18.4318 9.51704 17.8275C9.92685 17.2232 10.543 16.789 11.25 16.6065V13.5H5.24999V16.6058C5.95699 16.7883 6.57313 17.2224 6.98294 17.8268C7.39275 18.4311 7.56809 19.1641 7.47608 19.8885C7.38407 20.6129 7.03105 21.2788 6.48317 21.7615C5.93529 22.2442 5.23017 22.5105 4.49999 22.5105C3.76981 22.5105 3.0647 22.2442 2.51682 21.7615C1.96894 21.2788 1.61591 20.6129 1.5239 19.8885C1.4319 19.1641 1.60723 18.4311 2.01704 17.8268C2.42685 17.2224 3.043 16.7883 3.74999 16.6058ZM14.25 3H9.74999L9.74924 7.5H14.25V3ZM18 19.5C18 19.7967 18.088 20.0867 18.2528 20.3334C18.4176 20.58 18.6519 20.7723 18.926 20.8858C19.2001 20.9994 19.5017 21.0291 19.7926 20.9712C20.0836 20.9133 20.3509 20.7704 20.5607 20.5607C20.7704 20.3509 20.9133 20.0836 20.9712 19.7926C21.029 19.5017 20.9993 19.2001 20.8858 18.926C20.7723 18.6519 20.58 18.4176 20.3333 18.2528C20.0867 18.088 19.7967 18 19.5 18C19.1023 18.0004 18.721 18.1586 18.4398 18.4398C18.1586 18.721 18.0004 19.1023 18 19.5ZM10.5 19.5C10.5 19.7967 10.588 20.0867 10.7528 20.3334C10.9176 20.58 11.1519 20.7723 11.426 20.8858C11.7001 20.9994 12.0017 21.0291 12.2926 20.9712C12.5836 20.9133 12.8509 20.7704 13.0607 20.5607C13.2704 20.3509 13.4133 20.0836 13.4712 19.7926C13.529 19.5017 13.4993 19.2001 13.3858 18.926C13.2723 18.6519 13.08 18.4176 12.8333 18.2528C12.5867 18.088 12.2967 18 12 18C11.6023 18.0006 11.2212 18.1588 10.94 18.44C10.6588 18.7212 10.5006 19.1024 10.5 19.5ZM4.49999 21C4.79666 21 5.08667 20.912 5.33335 20.7472C5.58002 20.5824 5.77228 20.3481 5.88581 20.074C5.99934 19.7999 6.02905 19.4983 5.97117 19.2074C5.91329 18.9164 5.77043 18.6491 5.56065 18.4393C5.35087 18.2296 5.0836 18.0867 4.79263 18.0288C4.50166 17.9709 4.20005 18.0006 3.92597 18.1142C3.65188 18.2277 3.41761 18.42 3.25279 18.6666C3.08796 18.9133 2.99999 19.2033 2.99999 19.5C3.00039 19.8977 3.15855 20.279 3.43977 20.5602C3.72099 20.8414 4.10229 20.9996 4.49999 21Z" fill="black"/>
</svg>
